<svg width="32" height="32" viewBox="0 0 32 32" fill="none" xmlns="http://www.w3.org/2000/svg">
<path d="M26.3333 22.6667V17.0128C26.3333 16.9414 26.3334 16.871 26.3334 16.8014C26.3342 15.1971 26.3348 14.0816 25.8759 13.0838C25.417 12.086 24.5697 11.3605 23.351 10.317C23.2982 10.2718 23.2447 10.226 23.1905 10.1795L21.8571 9.03665L21.8066 8.99338C20.6073 7.96538 19.6361 7.13283 18.7775 6.56578C17.8835 5.97534 17.0101 5.60165 16 5.60165C14.9899 5.60165 14.1165 5.97534 13.2225 6.56578C12.3639 7.13283 11.3927 7.96537 10.1934 8.99337L10.1429 9.03665L8.80954 10.1795C8.75533 10.226 8.70182 10.2718 8.64901 10.317C7.43034 11.3605 6.58303 12.086 6.1241 13.0838C5.66517 14.0816 5.66575 15.1971 5.66659 16.8014C5.66663 16.871 5.66666 16.9414 5.66666 17.0128V22.6667L5.66666 22.736C5.66662 23.934 5.66659 24.9329 5.77321 25.726C5.88575 26.563 6.13331 27.3188 6.74061 27.9261C7.3479 28.5334 8.10363 28.7809 8.94069 28.8935C9.73374 29.0001 10.7327 29 11.9307 29H12H20H20.0693C21.2673 29 22.2663 29.0001 23.0593 28.8935C23.8964 28.7809 24.6521 28.5334 25.2594 27.9261C25.8667 27.3188 26.1142 26.563 26.2268 25.726C26.3334 24.9329 26.3334 23.934 26.3333 22.736V22.6667Z" stroke="white" stroke-width="2"/>
<path d="M19.3333 28V21C19.3333 20.4477 18.8856 20 18.3333 20H13.6667C13.1144 20 12.6667 20.4477 12.6667 21V28" stroke="white" stroke-width="2" stroke-linecap="square" stroke-linejoin="round"/>
</svg>
