<svg width="26" height="29" viewBox="0 0 26 29" fill="none" xmlns="http://www.w3.org/2000/svg">
<path d="M13 23.6667C17.4133 23.6667 21 20.08 21 15.6667V9C21 4.58667 17.4133 1 13 1C8.58666 1 4.99999 4.58667 4.99999 9V15.6667C4.99999 20.08 8.58666 23.6667 13 23.6667Z" stroke="white" stroke-width="2" stroke-linecap="round" stroke-linejoin="round"/>
<path d="M1 13.0001V15.6668C1 22.2935 6.37333 27.6668 13 27.6668C19.6267 27.6668 25 22.2935 25 15.6668V13.0001" stroke="white" stroke-width="2" stroke-linecap="round" stroke-linejoin="round"/>
<path d="M9.1468 8.30662C11.5201 7.43995 14.1068 7.43995 16.4801 8.30662" stroke="white" stroke-width="2" stroke-linecap="round" stroke-linejoin="round"/>
<path d="M10.3733 12.3068C11.9733 11.8668 13.6667 11.8668 15.2667 12.3068" stroke="white" stroke-width="2" stroke-linecap="round" stroke-linejoin="round"/>
</svg>
