<svg width="16" height="19" viewBox="0 0 16 19" fill="none" xmlns="http://www.w3.org/2000/svg">
<g id="&#240;&#159;&#166;&#134; icon &#34;trash&#34;">
<path id="Vector" d="M6.85714 0C5.6 0 4.57143 1.02857 4.57143 2.28571H2.28571C1.02857 2.28571 0 3.31429 0 4.57143H16C16 3.31429 14.9714 2.28571 13.7143 2.28571H11.4286C11.4286 1.02857 10.4 0 9.14286 0H6.85714ZM2.28571 6.85714V17.8514C2.28571 18.1029 2.46857 18.2857 2.72 18.2857H13.3029C13.5543 18.2857 13.7371 18.1029 13.7371 17.8514V6.85714H11.4514V14.8571C11.4514 15.4971 10.9486 16 10.3086 16C9.66857 16 9.16572 15.4971 9.16572 14.8571V6.85714H6.88V14.8571C6.88 15.4971 6.37714 16 5.73714 16C5.09714 16 4.59429 15.4971 4.59429 14.8571V6.85714H2.30857H2.28571Z" fill="#E8553E"/>
</g>
</svg>
