<svg width="19" height="23" viewBox="0 0 19 23" fill="none" xmlns="http://www.w3.org/2000/svg">
<g id="&#240;&#159;&#166;&#134; icon &#34;trash&#34;">
<path id="Vector" d="M8.14286 0C6.65 0 5.42857 1.28571 5.42857 2.85714H2.71429C1.22143 2.85714 0 4.14286 0 5.71429H19C19 4.14286 17.7786 2.85714 16.2857 2.85714H13.5714C13.5714 1.28571 12.35 0 10.8571 0H8.14286ZM2.71429 8.57143V22.3143C2.71429 22.6286 2.93143 22.8571 3.23 22.8571H15.7971C16.0957 22.8571 16.3129 22.6286 16.3129 22.3143V8.57143H13.5986V18.5714C13.5986 19.3714 13.0014 20 12.2414 20C11.4814 20 10.8843 19.3714 10.8843 18.5714V8.57143H8.17V18.5714C8.17 19.3714 7.57286 20 6.81286 20C6.05286 20 5.45571 19.3714 5.45571 18.5714V8.57143H2.74143H2.71429Z" fill="white"/>
</g>
</svg>
